<svg xmlns="http://www.w3.org/2000/svg" xmlns:xlink="http://www.w3.org/1999/xlink" width="32" height="32" viewBox="0 0 32 32" fill="none"><defs><rect id="path_0" x="0" y="0" width="26" height="7.744037230948214" /></defs><g opacity="1" transform="translate(0 0)  rotate(0 16 16)"><path id="矩形 1" fill-rule="evenodd" style="fill:#FFFFFF" transform="translate(0 0)  rotate(0 16 16)" opacity="1" d="M0,32L32,32L32,0L0,0L0,32Z " /><g opacity="1" transform="translate(3 12.127981384525896)  rotate(0 13 3.872018615474107)"><mask id="bg-mask-0" fill="white"><use xlink:href="#path_0"></use></mask><g mask="url(#bg-mask-0)" ><path id="分组 1" fill-rule="evenodd" style="fill:#A8A6A1" transform="translate(24.904097890052384 1.5215225258871696)  rotate(0 0.5479612492728332 2.020493052065145)" opacity="1" d="M1.07409 3.37555Z M1.07409 3.18555L0.0240878 3.18555L0.0240878 3.37555L0.704088 3.37555C0.854088 3.47555 0.934088 3.58555 0.934088 3.70555C0.934088 3.75555 0.914088 3.79555 0.884088 3.81555C0.844088 3.83555 0.794088 3.85555 0.714088 3.85555L0.0240878 3.85555L0.0240878 4.04555L0.774088 4.04555C0.874088 4.04555 0.954088 4.01555 1.01409 3.96555C1.06409 3.90555 1.09409 3.83555 1.09409 3.74555C1.09409 3.59555 1.02409 3.47555 0.874088 3.37555L1.07409 3.37555L1.07409 3.18555Z M1.04 2.12866L0.89 2.12866C0.93 2.24866 0.95 2.34866 0.95 2.42866C0.95 2.63866 0.83 2.76866 0.58 2.78866L0.58 2.12866L0.52 2.12866C0.35 2.12866 0.22 2.16866 0.14 2.22866C0.04 2.29866 0 2.39866 0 2.52866C0 2.65866 0.05 2.76866 0.15 2.85866C0.25 2.93866 0.38 2.98866 0.54 2.98866C0.71 2.98866 0.84 2.93866 0.94 2.83866C1.04 2.73866 1.1 2.61866 1.1 2.45866C1.1 2.36866 1.08 2.25866 1.04 2.12866Z M0.433481 2.32099C0.243481 2.32099 0.143481 2.39099 0.143481 2.54099C0.143481 2.68099 0.243481 2.77099 0.433481 2.78099L0.433481 2.32099Z M1.07409 1.24356L1.07409 1.05356L0.0240878 1.05356L0.0240878 1.24356L0.704088 1.24356C0.854088 1.35356 0.934088 1.45356 0.934088 1.57356C0.934088 1.62356 0.914088 1.66356 0.884088 1.68356C0.844088 1.71356 0.794088 1.72356 0.714088 1.72356L0.0240878 1.72356L0.0240878 1.91356L0.774088 1.91356C0.874088 1.91356 0.954088 1.88356 1.01409 1.83356C1.06409 1.77356 1.09409 1.70356 1.09409 1.61356C1.09409 1.46356 1.02409 1.34356 0.874088 1.24356L1.07409 1.24356Z M1.04 0.01L0.89 0.01C0.93 0.12 0.95 0.22 0.95 0.3C0.95 0.51 0.83 0.63 0.58 0.66L0.58 0L0.52 0C0.35 0 0.22 0.03 0.14 0.11C0.04 0.17 0 0.27 0 0.4C0 0.53 0.05 0.64 0.15 0.73C0.25 0.81 0.38 0.86 0.54 0.86C0.71 0.86 0.84 0.81 0.94 0.71C1.04 0.61 1.1 0.49 1.1 0.33C1.1 0.24 1.08 0.13 1.04 0.01Z M0.433481 0.192338C0.243481 0.192338 0.143481 0.262338 0.143481 0.412338C0.143481 0.552338 0.243481 0.632338 0.433481 0.652338L0.433481 0.192338Z " /><path id="分组 2" fill-rule="evenodd" style="fill:#175E9F" transform="translate(0.02895404013955649 0.16618157882494622)  rotate(0 8.358860406922615 3.5212976239092435)" opacity="1" d="M1.69 2.43287e-05L0 2.43287e-05L0 6.88002L1.69 6.88002L1.69 2.43287e-05Z M7.51007 3.79459C7.51007 3.06459 7.38007 2.52459 7.11007 2.17459C6.84007 1.82459 6.42007 1.64459 5.86007 1.64459C5.55007 1.64459 5.27007 1.69459 5.02007 1.79459C4.77007 1.89459 4.55007 2.04459 4.35007 2.24459L4.35007 1.76459L2.80007 1.76459L2.80007 6.87459L4.35007 6.87459L4.35007 3.86459C4.35007 3.49459 4.41007 3.23459 4.54007 3.08459C4.68007 2.93459 4.90007 2.86459 5.21007 2.86459C5.47007 2.86459 5.66007 2.94459 5.79007 3.10459C5.91007 3.26459 5.97007 3.52459 5.97007 3.86459L5.97007 6.87459L7.51007 6.87459L7.51007 3.79459Z M7.86066 1.89L7.86066 2.82L8.65066 2.82L8.65066 6.88L10.1907 6.88L10.1907 2.82L11.1507 2.82L11.1507 1.89L10.1907 1.89L10.1907 1.69C10.1907 1.49 10.2407 1.35 10.3307 1.27C10.4207 1.21 10.6107 1.17 10.8907 1.17L11.1507 1.17L11.1507 0.1C11.0007 0.06 10.8607 0.04 10.7207 0.02C10.5907 0.01 10.4507 0 10.3207 0C9.72066 0 9.29066 0.12 9.02066 0.36C8.76066 0.6 8.63066 0.99 8.63066 1.53C8.63066 1.57 8.63066 1.61 8.63066 1.66C8.63066 1.71 8.64066 1.78 8.65066 1.89L7.86066 1.89Z M15.9572 6.29821C16.4672 5.79821 16.7172 5.13821 16.7172 4.32821C16.7172 3.50821 16.4672 2.84821 15.9572 2.34821C15.4572 1.84821 14.7872 1.59821 13.9472 1.59821C13.1172 1.59821 12.4572 1.84821 11.9472 2.34821C11.4372 2.84821 11.1872 3.50821 11.1872 4.32821C11.1872 5.13821 11.4372 5.79821 11.9472 6.29821C12.4472 6.79821 13.1172 7.03821 13.9472 7.03821C14.7772 7.03821 15.4472 6.78821 15.9572 6.29821Z M13.0887 5.43679C13.2987 5.70679 13.5887 5.84679 13.9487 5.84679C14.3087 5.84679 14.5887 5.70679 14.8087 5.42679C15.0187 5.15679 15.1287 4.78679 15.1287 4.32679C15.1287 3.85679 15.0187 3.48679 14.8087 3.21679C14.5987 2.93679 14.3087 2.79679 13.9487 2.79679C13.5887 2.79679 13.3087 2.93679 13.0887 3.21679C12.8787 3.49679 12.7687 3.86679 12.7687 4.32679C12.7687 4.78679 12.8787 5.15679 13.0887 5.43679Z " /><path id="分组 3" fill-rule="evenodd" style="fill:#09843C" transform="translate(17.35342010296687 0.010365061082015958)  rotate(0 3.8711061992437474 3.8420548330424595)" opacity="1" d="M6.99 3.6C6.99 2.51 6.67 1.64 6.03 0.98C5.4 0.33 4.55 0 3.49 0C3.03 0 2.6 0.06 2.21 0.2C1.82 0.33 1.47 0.53 1.16 0.8C0.78 1.13 0.49 1.53 0.29 2C0.1 2.48 0 3.01 0 3.6C0 4.7 0.32 5.57 0.95 6.22C1.59 6.87 2.44 7.2 3.49 7.2C3.84 7.2 4.17 7.16 4.47 7.09C4.78 7.02 5.07 6.91 5.32 6.77C5.56 7.03 5.84 7.24 6.16 7.39C6.48 7.55 6.84 7.65 7.23 7.68L7.74 6.46C7.48 6.43 7.22 6.36 6.99 6.26C6.75 6.16 6.54 6.02 6.34 5.84C6.56 5.54 6.72 5.21 6.83 4.84C6.93 4.47 6.99 4.06 6.99 3.6Z M4.7807 5.18899C5.0807 4.80899 5.2407 4.27899 5.2407 3.59899C5.2407 2.92899 5.0807 2.39899 4.7707 2.00899C4.4707 1.62899 4.0407 1.43899 3.4907 1.43899C2.9507 1.43899 2.5307 1.62899 2.2207 2.01899C1.9007 2.39899 1.7507 2.92899 1.7507 3.59899C1.7507 4.27899 1.9007 4.79899 2.2107 5.18899C2.5207 5.56899 2.9507 5.75899 3.4907 5.75899C4.0407 5.75899 4.4707 5.56899 4.7807 5.18899Z " /><path id="路径 14" fill-rule="evenodd" style="fill:#107F3B" transform="translate(17.45536750959858 4.292569931355436)  rotate(0 3.820120327806863 1.700940233566024)" opacity="1" d="M5.05,0.09C4.98,0.41 4.85,0.69 4.67,0.91C4.37,1.29 3.94,1.48 3.39,1.48C2.85,1.48 2.42,1.28 2.11,0.9C1.96,0.72 1.85,0.49 1.77,0.23C1.17,0.26 0.58,0.28 0,0.3C0.14,0.94 0.42,1.49 0.85,1.94C1.49,2.59 2.33,2.92 3.39,2.92C3.74,2.92 4.06,2.88 4.37,2.81C4.68,2.74 4.96,2.63 5.22,2.49C5.46,2.75 5.74,2.96 6.06,3.11C6.38,3.27 6.73,3.36 7.12,3.4L7.64,2.18C7.37,2.15 7.12,2.08 6.89,1.98C6.65,1.87 6.43,1.73 6.23,1.56C6.46,1.26 6.62,0.93 6.73,0.56C6.78,0.38 6.81,0.2 6.84,0C6.24,0.03 5.65,0.06 5.05,0.09Z " /><path id="分组 4" fill-rule="evenodd" style="fill:#04589A" transform="translate(8.675456995927902 4.614154402559624)  rotate(0 4.033114989819651 1.2972990477021509)" opacity="1" d="M8.06976 0C7.52976 0.01 7.00976 0.03 6.47976 0.04C6.45976 0.43 6.34976 0.74 6.15976 0.98C5.94976 1.26 5.65976 1.4 5.29976 1.4C4.93976 1.4 4.65976 1.26 4.43976 0.99C4.25976 0.75 4.15976 0.45 4.12976 0.08C3.59976 0.09 3.07976 0.09 2.54976 0.1C2.58976 0.81 2.83976 1.4 3.29976 1.85C3.79976 2.35 4.46976 2.59 5.29976 2.59C6.12976 2.59 6.79976 2.35 7.30976 1.85C7.78976 1.37 8.03976 0.76 8.06976 0Z M1.55 2.42878L1.55 0.0887842C1.03 0.0887842 0.52 0.0887842 0 0.0787842L0 2.42878L1.55 2.42878Z " /><path id="路径 17" fill-rule="evenodd" style="fill:#04589A" transform="translate(2.829028479348473 4.500674037230945)  rotate(0 0.7737784109947645 1.2711552536358324)" opacity="1" d="M1.55,2.54L1.55,0.07C1.04,0.05 0.52,0.03 0,0L0,2.54L1.55,2.54Z " /><path id="路径 18" fill-rule="evenodd" style="fill:#04589A" transform="translate(5.998011420593394 4.6332786655031875)  rotate(0 0.7729754889470623 1.2048529394997072)" opacity="1" d="M1.55,2.41L1.55,0.04C1.03,0.03 0.52,0.02 0,0L0,2.41L1.55,2.41Z " /><path id="路径 19" fill-rule="evenodd" style="fill:#04589A" transform="translate(0.02895404013890338 4.3340788330424145)  rotate(0 0.8455065651545013 1.354452855730097)" opacity="1" d="M1.69,2.71L1.69,0.11C1.13,0.07 0.56,0.04 0,0L0,2.71L1.69,2.71Z " /></g></g></g></svg>